<svg id="Layer_1" data-name="Layer 1" xmlns="http://www.w3.org/2000/svg" viewBox="0 0 256 256"><defs><style>.cls-1,.cls-2,.cls-3{fill:#fbb040;}.cls-2{opacity:0.5;}.cls-3{opacity:0.25;}.cls-4{fill:#fff;}</style></defs><rect class="cls-1" x="14.78" y="14.78" width="193.86" height="193.86" rx="23.76"/><rect class="cls-2" x="31.07" y="31.07" width="193.86" height="193.86" rx="23.76"/><rect class="cls-3" x="47.36" y="47.36" width="193.86" height="193.86" rx="23.76"/><path class="cls-4" d="M65.22,140,63.35,127.1h-9.5L52,140h-8.6L53.2,83.17h11L74,140ZM55,119.3h7.23l-3.5-24h-.24Z"/><path class="cls-4" d="M103.14,131.89V140h-23V83.17h8.61v48.72Z"/><path class="cls-4" d="M134.81,127.26c0,8.94-5.11,13.57-13.4,13.57-8.12,0-13.23-4.63-13.23-13.57V83.17h8.28V127c0,4.14,1.87,5.69,4.87,5.69s4.88-1.55,4.88-5.69V83.17h8.6Z"/><path class="cls-4" d="M171.44,140V100.55h-.17l-7.14,31.34H159l-7.15-31.34h-.16V140h-8.12V83.17h11.29l6.74,30.53h.16l6.66-30.53H180V140Z"/></svg>