<?xml version="1.0" encoding="utf-8"?>
<!-- Generator: Adobe Illustrator 25.2.1, SVG Export Plug-In . SVG Version: 6.00 Build 0)  -->
<svg version="1.1" id="Layer_1" xmlns="http://www.w3.org/2000/svg" xmlns:xlink="http://www.w3.org/1999/xlink" x="0px" y="0px"
	 viewBox="0 0 30 30" style="enable-background:new 0 0 30 30;" xml:space="preserve">
<style type="text/css">
	.st0{fill:#FCB040;}
</style>
<path class="st0" d="M10.4,4C6.8,4,4,6.8,4,10.4v9.2c0,3.6,2.8,6.4,6.4,6.4h9.2c3.6,0,6.4-2.8,6.4-6.4v-9.2C26,6.8,23.2,4,19.6,4
	H10.4z M21.4,7.7c0.6,0,0.9,0.4,0.9,0.9c0,0.6-0.4,0.9-0.9,0.9c-0.5,0-0.9-0.4-0.9-0.9S20.9,7.7,21.4,7.7z M15,9.5
	c3,0,5.5,2.5,5.5,5.5S18,20.5,15,20.5S9.5,18,9.5,15S12,9.5,15,9.5z M15,11.3c-2,0-3.7,1.7-3.7,3.7s1.7,3.7,3.7,3.7s3.7-1.6,3.7-3.7
	S17,11.3,15,11.3z"/>
</svg>
