<?xml version="1.0" encoding="utf-8"?>
<!-- Generator: Adobe Illustrator 25.2.1, SVG Export Plug-In . SVG Version: 6.00 Build 0)  -->
<svg version="1.1" id="Layer_1" xmlns="http://www.w3.org/2000/svg" xmlns:xlink="http://www.w3.org/1999/xlink" x="0px" y="0px"
	 viewBox="0 0 30 30" style="enable-background:new 0 0 30 30;" xml:space="preserve">
<style type="text/css">
	.st0{fill:#FCB040;}
</style>
<path class="st0" d="M6,4C4.9,4,4,4.9,4,6v18c0,1.1,0.9,2,2,2h18c1.1,0,2-0.9,2-2V6c0-1.1-0.9-2-2-2H6z M17.5,11h2.6
	c0.3,0,0.5,0.2,0.5,0.5S20.3,12,20.1,12h-2.6c-0.3,0-0.5-0.2-0.5-0.5S17.2,11,17.5,11z M8.9,11.4h2.8c1.6,0,2.6,0.8,2.6,2.1
	c0,0.9-0.7,1.7-1.5,1.8v0.1c1.1,0.1,1.9,0.9,1.9,2c0,1.5-1.1,2.4-2.9,2.4H8.9c-0.5,0-0.9-0.4-0.9-0.9v-6.6C8,11.8,8.4,11.4,8.9,11.4
	z M9.8,12.7v2.2h1.3c1,0,1.5-0.4,1.5-1.1c0-0.7-0.5-1.1-1.3-1.1H9.8z M19,13.2c1.9,0,3,1.2,3,3.3V17h-4.4v0.1c0,1,0.6,1.6,1.5,1.6
	c0.7,0,1.1-0.2,1.3-0.7h1.6c-0.3,1.2-1.4,2-3,2c-2,0-3.1-1.2-3.1-3.3C15.9,14.5,17,13.2,19,13.2z M19,14.6c-0.8,0-1.4,0.6-1.4,1.4
	h2.8C20.3,15.1,19.8,14.6,19,14.6z M9.8,16.1v2.4h1.6c1,0,1.6-0.4,1.6-1.2c0-0.8-0.6-1.2-1.6-1.2H9.8z"/>
</svg>
